<svg width="69" height="23" viewBox="0 0 69 23" fill="none" xmlns="http://www.w3.org/2000/svg">
<path d="M12.048 7.952L2.752 12.908L11.88 17.64L10.508 20.076L0.232 14.756V11.2L10.76 5.6L12.048 7.952ZM17.34 21L13.28 2.66H16.36L19.804 18.396H20.392L23.696 2.66H26.692L22.772 21H17.34ZM28.176 7.56C28.176 4.10667 30.248 2.38 34.392 2.38C35.848 2.38 37.5093 2.70667 39.376 3.36L38.732 5.908C36.828 5.31067 35.3253 5.012 34.224 5.012C33.1413 4.99333 32.3573 5.17067 31.872 5.544C31.3867 5.91733 31.144 6.57067 31.144 7.504C31.144 8.13867 31.4147 8.68 31.956 9.128C32.4973 9.55733 33.412 9.94 34.7 10.276C36.66 10.7987 38.004 11.4707 38.732 12.292C39.46 13.1133 39.824 14.336 39.824 15.96C39.824 19.488 37.7147 21.252 33.496 21.252C32.096 21.252 30.332 20.9533 28.204 20.356L28.792 17.696C28.792 17.7147 29.0813 17.7987 29.66 17.948C31.4707 18.4147 32.8707 18.648 33.86 18.648C34.868 18.648 35.6147 18.396 36.1 17.892C36.604 17.388 36.856 16.7533 36.856 15.988C36.856 15.2227 36.6413 14.6347 36.212 14.224C35.8013 13.8133 35.036 13.4493 33.916 13.132C31.9 12.572 30.4347 11.8813 29.52 11.06C28.624 10.2387 28.176 9.072 28.176 7.56ZM41.056 21.308L52.648 0.924L54.944 2.268L43.352 22.68L41.056 21.308ZM65.528 12.908L56.232 7.952L57.52 5.6L68.048 11.2V14.756L57.772 20.076L56.4 17.64L65.528 12.908Z" fill="#25B81D"/>
</svg>
